<svg class="svg-icon" style="width: 1em; height: 1em;vertical-align: middle;fill: currentColor;overflow: hidden;" viewBox="0 0 1024 1024" version="1.1" xmlns="http://www.w3.org/2000/svg"><path d="M128 145v632.6c0 5.6 2.6 11 7 14l139.6 100.4c10.4 7.4 24.2-0.6 24.2-14V245.4c0-5.6-2.6-11-7-14L152.2 130.8c-10.4-7.4-24.2 0.6-24.2 14.2z m209.4 101.6v632.6c0 13.4 13.8 21.6 24.2 14l124-73.4c4.4-3.2 7-8.4 7-14V173.2c0-13.4-13.8-21.6-24.2-14l-124 73.4c-4.4 3-7 8.2-7 14z m534.4-115.6l-139.6 101.4c-4.4 3.2-7 8.4-7 14v632.4c0 13.6 13.8 21.6 24.2 14l139.6-101.4c4.4-3.2 7-8.4 7-14V145c0-13.4-13.8-21.4-24.2-14zM531.4 171.2v632.4c0 5.6 2.6 11 7 14l124 74c10.4 7.6 24.2-0.6 24.2-14V245.2c0-5.6-2.6-11-7-14l-124-74c-10.4-7.4-24.2 0.6-24.2 14z"  /></svg>